{"title":"Doraemon Nobita And The New Steel Troops Angel Wings 2011 [Hindi","uid":7328022,"size":1069989589,"categoryP":"video","categoryS":"hd___movies","magnet":"?xt=urn:btih:1a7fdcaff01ea0ba74712a532cd57d048ce91d08&amp;dn=Doraemon+Nobita+And+The+New+Steel+Troops+Angel+Wings+2011+%5BHindi&amp;tr=udp%3A%2F%2Ftracker.openbittorrent.com%3A80&amp;tr=udp%3A%2F%2Fopen.demonii.com%3A1337&amp;tr=udp%3A%2F%2Ftracker.coppersurfer.tk%3A6969&amp;tr=udp%3A%2F%2Fexodus.desync.com%3A6969","seeders":2,"leechers":0,"uploader":"Siv123","files":12,"time":1338822051,"description":"[FORMAT]:.......................[ MP4\n[GENRE]:........................[ Animation\n[FILE SIZE]:....................[ 1021MB\n[RESOLUTION]:...................[ 1280*720\n[FRAME RATE]:...................[ 23.976 fps\n[LANGUAGE ]:....................[ Hindi\n[SUBTITLES]:....................[ None\n[RUNTIME]:......................[ 1h 48mn 39sec\n[SOURCE]:.......................[ 720p\n\nGeneral\n\nComplete name : Doraemon Nobita And The New Steel Troops Angel Wings 2011 [Hindi] 720p\nFormat : MPEG-4\nFormat profile : Base Media / Version 2\nCodec ID : mp42\nFile size : 1 020 MiB\nDuration : 1h 48mn\nOverall bit rate mode : Variable\nOverall bit rate : 1 312 Kbps\nEncoded date : UTC 2012-05-31 13:57:16\nTagged date : UTC 2012-05-31 15:43:24\nWriting application : HandBrake 0.9.5 2011010300\n\nVideo\n\nID : 1\nFormat : AVC\nFormat/Info : Advanced Video Codec\nFormat profile : &lt;a class=&quot;__cf_email__&quot; href=&quot;/cdn-cgi/l/email-protection&quot; data-cfemail=&quot;581539313618146b7669&quot;&gt;[email&amp;#160;protected]&lt;/a&gt;&lt;script cf-hash='f9e31' type=&quot;text/javascript&quot;&gt;\n/* &lt;![CDATA[ */!function(){try{var t=&quot;currentScript&quot;in document?document.currentScript:function(){for(var t=document.getElementsByTagName(&quot;script&quot;),e=t.length;e--;)if(t[e].getAttribute(&quot;cf-hash&quot;))return t[e]}();if(t&amp;&amp;t.previousSibling){var e,r,n,i,c=t.previousSibling,a=c.getAttribute(&quot;data-cfemail&quot;);if(a){for(e=&quot;&quot;,r=parseInt(a.substr(0,2),16),n=2;a.length-n;n+=2)i=parseInt(a.substr(n,2),16)^r,e+=String.fromCharCode(i);e=document.createTextNode(e),c.parentNode.replaceChild(e,c)}}}catch(u){}}();/* ]]&gt; */&lt;/script&gt;\nFormat settings, CABAC : Yes\nFormat settings, ReFrames : 5 frames\nCodec ID : avc1\nCodec ID/Info : Advanced Video Coding\nDuration : 1h 48mn\nBit rate mode : Variable\nBit rate : 1 148 Kbps\nWidth : 1 280 pixels\nHeight : 720 pixels\nDisplay aspect ratio : 16:9\nFrame rate mode : Variable\nFrame rate : 23.976 fps\nMinimum frame rate : 15.385 fps\nMaximum frame rate : 1 000.000 fps\nColor space : YUV\nChroma subsampling : 4:2:0\nBit depth : 8 bits\nScan type : Progressive\nBits/(Pixel*Frame) : 0.052\nStream size : 892 MiB (87%)\nWriting library : x264 core 112\n\n\nAudio\n\nID : 2\nFormat : AAC\nFormat/Info : Advanced Audio Codec\nFormat profile : LC\nCodec ID : 40\nDuration : 1h 48mn\nBit rate mode : Variable\nBit rate : 160 Kbps\nMaximum bit rate : 358 Kbps\nChannel(s) : 2 channels\nChannel positions : Front: L R\nSampling rate : 44.1 KHz\nCompression mode : Lossy\nDelay relative to video : -83ms\nStream size : 124 MiB (12%)\n","torrent":{"xt":"urn:btih:1a7fdcaff01ea0ba74712a532cd57d048ce91d08","amp;dn":"Doraemon+Nobita+And+The+New+Steel+Troops+Angel+Wings+2011+%5BHindi","amp;tr":["udp%3A%2F%2Ftracker.openbittorrent.com%3A80","udp%3A%2F%2Fopen.demonii.com%3A1337","udp%3A%2F%2Ftracker.coppersurfer.tk%3A6969","udp%3A%2F%2Fexodus.desync.com%3A6969"],"infoHash":"1a7fdcaff01ea0ba74712a532cd57d048ce91d08","infoHashBuffer":{"type":"Buffer","data":[26,127,220,175,240,30,160,186,116,113,42,83,44,213,125,4,140,233,29,8]},"announce":[],"urlList":[]}}